<?xml version="1.0" standalone="no"?>
<!DOCTYPE svg PUBLIC "-//W3C//DTD SVG 20010904//EN"
 "http://www.w3.org/TR/2001/REC-SVG-20010904/DTD/svg10.dtd">
<svg version="1.0" xmlns="http://www.w3.org/2000/svg"
 width="305.000000pt" height="305.000000pt" viewBox="0 0 305.000000 305.000000"
 preserveAspectRatio="xMidYMid meet">
<metadata>
Created by potrace 1.14, written by Peter Selinger 2001-2017
</metadata>
<g transform="translate(0.000000,305.000000) scale(0.100000,-0.100000)"
fill="#000000" stroke="none">
<path d="M2505 2861 c-128 -59 -156 -235 -53 -332 45 -42 87 -59 148 -59 202
0 276 263 106 378 -41 27 -57 32 -105 32 -33 0 -72 -8 -96 -19z m129 -122 c31
-24 36 -81 10 -117 -22 -32 -76 -30 -103 4 -35 45 -25 96 24 122 29 16 39 15
69 -9z"/>
<path d="M1315 2775 c-186 -34 -403 -124 -540 -224 -95 -70 -231 -206 -298
-300 -105 -145 -190 -342 -222 -516 -25 -133 -17 -445 15 -565 41 -157 115
-311 209 -440 105 -144 328 -318 456 -356 23 -7 -2 -10 -100 -14 -128 -5 -129
-5 -144 -32 -13 -22 -13 -30 -2 -51 7 -14 23 -28 35 -31 11 -3 120 -6 241 -6
162 0 241 -4 300 -16 111 -23 359 -23 494 -1 75 12 165 17 317 17 206 0 214 1
234 22 23 25 25 55 6 81 -11 14 -30 17 -120 17 -58 0 -106 4 -106 8 0 5 17 14
38 20 63 19 242 144 319 223 99 100 163 191 222 312 89 184 118 300 128 507 6
145 -7 277 -42 400 -71 249 -176 424 -362 599 -175 167 -376 276 -610 332
-116 28 -353 35 -468 14z m135 -395 l0 -260 -27 6 c-192 42 -299 142 -311 289
-7 87 17 139 80 171 57 29 151 52 216 53 l42 1 0 -260z m340 228 c84 -27 126
-68 135 -130 13 -87 -28 -199 -94 -256 -36 -31 -129 -78 -171 -87 -19 -3 -43
-9 -52 -11 -17 -5 -18 12 -18 257 l0 262 68 -7 c37 -4 96 -16 132 -28z m-795
-338 c19 -47 52 -96 97 -143 l26 -28 -39 -74 c-22 -40 -55 -115 -73 -166 -18
-51 -38 -95 -43 -96 -6 -2 -42 27 -82 65 -51 50 -79 88 -103 138 -31 64 -33
76 -33 174 0 95 3 110 28 163 29 58 93 127 157 170 l35 23 6 -91 c3 -49 14
-110 24 -135z m1094 205 c20 0 112 -79 146 -125 63 -86 77 -151 61 -276 -12
-85 -66 -178 -149 -254 -62 -57 -76 -65 -82 -48 -3 7 -16 49 -30 93 -15 43
-46 115 -71 158 l-44 79 35 37 c72 73 123 221 112 320 -3 26 -1 38 4 30 4 -8
13 -14 18 -14z m-1493 -368 c1 -82 34 -188 82 -262 45 -68 145 -167 216 -211
38 -24 46 -33 42 -54 -2 -14 -15 -92 -29 -175 -14 -82 -29 -176 -34 -207 l-8
-58 -79 52 c-44 28 -108 79 -144 112 -151 141 -256 354 -231 468 26 118 76
237 133 318 18 25 35 53 39 63 10 27 12 21 13 -46z m1873 -1 c12 -19 19 -42
15 -52 -4 -14 -3 -15 4 -6 7 10 14 6 29 -20 32 -55 83 -188 83 -219 0 -16 5
-29 11 -29 6 0 8 -7 5 -17 -4 -9 -1 -20 6 -24 9 -6 9 -11 -1 -23 -7 -8 -10
-24 -6 -36 4 -11 2 -20 -4 -20 -6 0 -10 -8 -9 -17 3 -35 -2 -54 -12 -48 -6 3
-10 -4 -10 -17 0 -23 -67 -146 -97 -180 -9 -10 -20 -15 -26 -11 -6 4 -7 1 -2
-6 8 -14 -57 -81 -130 -135 -22 -17 -42 -32 -45 -36 -3 -3 -29 -18 -57 -33
l-53 -28 -2 43 c-1 24 -3 57 -6 73 -2 17 -5 48 -7 70 -2 22 -4 40 -6 40 -1 0
-3 9 -4 20 -2 11 -12 62 -23 113 l-20 93 61 45 c150 108 249 243 265 357 3 21
8 34 11 28 4 -5 6 17 5 49 0 33 1 60 2 60 1 0 12 -15 23 -34z m-628 -133 c47
-104 99 -242 99 -264 0 -30 -102 -66 -232 -84 l-48 -6 0 184 0 183 73 26 c39
14 73 26 75 27 2 0 17 -29 33 -66z m-486 26 c44 -10 101 -19 127 -19 l46 0 -1
-182 -2 -183 -75 0 c-41 1 -109 7 -150 14 -80 14 -197 48 -204 59 -9 17 105
309 131 336 4 4 17 4 28 1 11 -4 56 -15 100 -26z m628 -476 c23 -130 46 -291
51 -354 l7 -76 -51 -22 c-69 -30 -191 -60 -267 -68 l-63 -6 0 240 0 240 101
17 c55 10 123 26 152 36 29 10 55 18 58 19 4 0 9 -11 12 -26z m-834 -3 c35
-11 136 -28 223 -37 l159 -17 -6 -235 c-3 -129 -7 -236 -8 -237 -8 -7 -275 18
-330 31 -57 13 -174 51 -185 60 -6 5 27 290 43 370 8 44 15 81 15 83 0 6 31 0
89 -18z m-748 -150 c6 0 7 -4 4 -10 -3 -5 -2 -10 3 -10 14 0 23 -30 17 -52 -4
-10 -11 -15 -17 -12 -7 5 -8 2 -3 -6 6 -10 11 -9 21 5 12 15 20 9 95 -66 46
-46 82 -88 81 -92 -2 -5 2 -6 8 -2 5 3 27 -7 47 -24 21 -16 74 -49 118 -73
l80 -44 1 -64 c2 -104 14 -247 27 -333 4 -27 3 -27 -17 -12 -11 8 -39 27 -61
42 -71 48 -200 186 -251 268 -91 147 -154 323 -167 465 -2 30 -2 47 0 38 2
-10 9 -18 14 -18z m2230 -37 c-12 -20 -14 -14 -5 12 4 9 9 14 11 11 3 -2 0
-13 -6 -23z m3 -55 c7 -5 5 -8 -6 -8 -10 0 -19 -12 -23 -31 -5 -23 -9 -28 -16
-18 -12 19 -11 32 1 24 14 -9 12 18 -2 35 -10 11 -9 11 6 0 18 -14 19 -13 13
15 -6 26 -6 27 5 10 6 -11 16 -23 22 -27z m-72 -30 c-14 -14 -16 -32 -3 -24 5
3 14 -1 21 -9 19 -22 27 -18 34 17 9 43 17 31 9 -15 -3 -22 -10 -34 -16 -30
-6 4 -8 0 -4 -10 8 -21 -36 -140 -48 -130 -4 5 -5 3 -1 -4 12 -21 -74 -169
-153 -263 -52 -62 -91 -98 -165 -153 -28 -21 -59 -45 -68 -52 -22 -18 -23 -11
-7 66 6 30 14 119 17 198 l7 145 50 29 c28 17 63 30 78 30 16 0 23 3 16 8 -14
8 28 35 48 31 7 -2 10 3 7 11 -5 14 41 42 65 38 7 -1 10 2 6 8 -5 9 100 119
115 121 2 0 -1 -5 -8 -12z m-1425 -357 c45 -9 88 -22 95 -29 6 -6 17 -12 23
-12 5 0 3 5 -5 10 -12 8 -11 10 6 10 11 0 24 -3 28 -7 4 -5 31 -8 59 -8 29 0
81 -1 117 -3 l65 -2 3 -127 c2 -71 0 -181 -3 -245 l-7 -118 -67 0 c-37 0 -71
3 -74 7 -4 3 -19 7 -34 9 -74 6 -236 58 -270 85 -10 9 -27 79 -23 95 1 4 -3
10 -8 13 -15 10 -42 180 -42 270 l0 83 28 -7 c15 -5 64 -15 109 -24z m891 17
c14 -14 17 -164 2 -173 -5 -3 -7 -12 -4 -20 6 -14 -13 -122 -24 -140 -4 -5 -7
-12 -7 -15 0 -3 -7 -27 -14 -53 -10 -34 -22 -52 -41 -62 -37 -19 -228 -75
-256 -75 l-24 0 0 245 0 245 34 0 c19 0 38 -4 41 -10 10 -16 25 -11 18 6 -5
14 -1 15 25 9 18 -3 32 -3 32 2 0 7 93 29 158 38 12 1 26 5 29 9 9 9 18 7 31
-6z"/>
<path d="M2450 2103 c0 -6 8 -17 18 -24 16 -13 16 -13 2 6 -8 11 -16 22 -17
24 -2 2 -3 0 -3 -6z"/>
<path d="M2431 1964 c0 -11 3 -14 6 -6 3 7 2 16 -1 19 -3 4 -6 -2 -5 -13z"/>
<path d="M2402 1888 c-12 -31 -15 -45 -7 -34 8 11 15 25 16 30 0 6 4 2 8 -9 6
-14 8 -8 7 23 0 23 -1 42 -1 42 -1 0 -11 -24 -23 -52z"/>
<path d="M2531 1874 c0 -11 3 -14 6 -6 3 7 2 16 -1 19 -3 4 -6 -2 -5 -13z"/>
<path d="M2520 1775 c0 -8 7 -15 16 -15 14 0 14 3 4 15 -7 8 -14 15 -16 15 -2
0 -4 -7 -4 -15z"/>
<path d="M2556 1565 c-9 -26 -7 -32 5 -12 6 10 9 21 6 23 -2 3 -7 -2 -11 -11z"/>
<path d="M2469 1413 c-13 -16 -12 -17 4 -4 9 7 17 15 17 17 0 8 -8 3 -21 -13z"/>
<path d="M400 1320 c0 -5 5 -10 10 -10 6 0 10 5 10 10 0 6 -4 10 -10 10 -5 0
-10 -4 -10 -10z"/>
<path d="M2526 1207 c-10 -8 -16 -19 -12 -25 4 -7 2 -10 -7 -6 -8 3 -20 -3
-28 -12 -12 -16 -12 -17 5 -11 10 4 24 2 32 -3 16 -14 37 20 32 51 -3 18 -5
19 -22 6z"/>
<path d="M2477 1133 c-4 -3 -15 -7 -25 -8 -23 -2 -65 -25 -58 -32 3 -4 14 1
24 10 17 16 20 16 38 -1 22 -21 54 -35 54 -24 0 4 -8 18 -17 31 -16 23 -16 24
5 19 12 -4 20 -2 16 3 -6 11 -28 12 -37 2z"/>
<path d="M2561 1094 c0 -11 3 -14 6 -6 3 7 2 16 -1 19 -3 4 -6 -2 -5 -13z"/>
<path d="M2408 1084 c-16 -8 -28 -17 -28 -19 0 -11 19 -4 41 15 29 23 24 25
-13 4z"/>
<path d="M2410 1056 l-25 -14 26 1 c14 1 26 8 26 15 0 6 -1 12 -1 12 -1 -1
-12 -7 -26 -14z"/>
<path d="M2250 1005 c-15 -8 -19 -14 -10 -14 18 -1 46 16 40 23 -3 2 -16 -2
-30 -9z"/>
<path d="M2256 981 c-19 -7 -19 -8 0 -13 13 -3 21 0 21 8 0 8 -1 14 -1 13 -1
0 -10 -4 -20 -8z"/>
<path d="M2390 859 c0 -5 5 -7 10 -4 6 3 10 8 10 11 0 2 -4 4 -10 4 -5 0 -10
-5 -10 -11z"/>
<path d="M2368 827 c-3 -19 -2 -25 4 -19 6 6 8 18 6 28 -3 14 -5 12 -10 -9z"/>
<path d="M2418 833 c7 -3 16 -2 19 1 4 3 -2 6 -13 5 -11 0 -14 -3 -6 -6z"/>
<path d="M1503 680 c0 -25 2 -35 4 -22 2 12 2 32 0 45 -2 12 -4 2 -4 -23z"/>
<path d="M1998 893 c7 -3 16 -2 19 1 4 3 -2 6 -13 5 -11 0 -14 -3 -6 -6z"/>
<path d="M1870 871 c0 -6 -10 -16 -22 -21 l-23 -9 23 0 c22 -1 41 23 28 36 -3
4 -6 1 -6 -6z"/>
<path d="M1970 789 c0 -5 5 -7 10 -4 6 3 10 8 10 11 0 2 -4 4 -10 4 -5 0 -10
-5 -10 -11z"/>
<path d="M370 2737 c-33 -17 -70 -74 -70 -109 0 -46 26 -95 59 -112 121 -63
246 69 173 182 -31 47 -108 66 -162 39z"/>
<path d="M355 485 c-102 -36 -133 -166 -60 -253 65 -77 183 -67 249 22 31 41
29 130 -3 175 -25 34 -90 71 -126 70 -11 0 -38 -6 -60 -14z m88 -130 c3 -7 -2
-24 -12 -37 -16 -19 -21 -20 -35 -9 -16 14 -21 42 -9 54 12 13 51 7 56 -8z"/>
<path d="M2540 478 c-84 -43 -111 -142 -59 -226 89 -147 333 -45 288 120 -19
73 -90 128 -164 128 -12 0 -41 -10 -65 -22z m94 -117 c18 -20 13 -46 -11 -55
-33 -13 -57 36 -31 62 16 16 22 15 42 -7z"/>
</g>
</svg>
